<svg width="22" height="22" viewBox="0 0 22 22" fill="none" xmlns="http://www.w3.org/2000/svg">
<path d="M9.67312 2.45223C10.0447 2.13995 10.5146 1.96875 11 1.96875C11.4854 1.96875 11.9553 2.13995 12.3269 2.45223L18.5144 7.65523C18.7447 7.84877 18.9299 8.09035 19.057 8.36303C19.184 8.63571 19.2499 8.93289 19.25 9.23373V17.8756C19.25 18.2403 19.1051 18.59 18.8473 18.8479C18.5894 19.1057 18.2397 19.2506 17.875 19.2506H14.0938C13.7291 19.2506 13.3793 19.1057 13.1215 18.8479C12.8636 18.59 12.7188 18.2403 12.7188 17.8756V13.0631H9.28125V17.8756C9.28125 18.2403 9.13638 18.59 8.87852 18.8479C8.62066 19.1057 8.27092 19.2506 7.90625 19.2506H4.125C3.76033 19.2506 3.41059 19.1057 3.15273 18.8479C2.89487 18.59 2.75 18.2403 2.75 17.8756V9.23304C2.75008 8.9322 2.81596 8.63502 2.94304 8.36234C3.07012 8.08966 3.25531 7.84808 3.48563 7.65454L9.67312 2.45154V2.45223ZM11.4427 3.5041C11.3188 3.39977 11.162 3.34256 11 3.34256C10.838 3.34256 10.6812 3.39977 10.5572 3.5041L4.36975 8.70848C4.29327 8.77286 4.23175 8.85315 4.18948 8.94375C4.14721 9.03434 4.1252 9.13307 4.125 9.23304V17.8749H7.90625V13.0624C7.90625 12.6977 8.05112 12.348 8.30898 12.0901C8.56684 11.8323 8.91658 11.6874 9.28125 11.6874H12.7188C13.0834 11.6874 13.4332 11.8323 13.691 12.0901C13.9489 12.348 14.0938 12.6977 14.0938 13.0624V17.8749H17.875V9.23304C17.875 9.13284 17.8531 9.03384 17.8108 8.94299C17.7685 8.85215 17.7069 8.77163 17.6302 8.7071L11.4427 3.5041V3.5041Z" fill="#9A9A9A"/>
</svg>
