<svg width="20" height="20" viewBox="0 0 20 20" fill="none" xmlns="http://www.w3.org/2000/svg">
<path fill-rule="evenodd" clip-rule="evenodd" d="M3.75 14.375V4.375L4.375 3.75H6.875L7.5 4.375V14.375L6.875 15H4.375L3.75 14.375ZM6.25 13.75V5H5V13.75H6.25ZM13.75 1.875V14.375L14.375 15H16.875L17.5 14.375V1.875L16.875 1.25H14.375L13.75 1.875ZM16.25 2.5V13.75H15V2.5H16.25ZM8.75 14.375V6.875L9.375 6.25H11.875L12.5 6.875V14.375L11.875 15H9.375L8.75 14.375ZM11.25 13.75V7.5H10V13.75H11.25Z" fill="#9A9A9A"/>
</svg>
